PathFileType	4	(X/Y/Z)	/Users/visionmauri/Downloads/Videos/OAW05-top_Sports2D/OAW05-top_Sports2D_px_person00.trc
DataRate	CameraRate	NumFrames	NumMarkers	Units	OrigDataRate	OrigDataStartFrame	OrigNumFrames
28.0	28.0	6	22	m	28.0	1636	2182
Frame#	Time	Hip			RHip			RKnee			RAnkle			RBigToe			RSmallToe			RHeel			LHip			LKnee			LAnkle			LBigToe			LSmallToe			LHeel			Neck			Head			Nose			RShoulder			RElbow			RWrist			LShoulder			LElbow			LWrist			
		X1	Y1	Z1	X2	Y2	Z2	X3	Y3	Z3	X4	Y4	Z4	X5	Y5	Z5	X6	Y6	Z6	X7	Y7	Z7	X8	Y8	Z8	X9	Y9	Z9	X10	Y10	Z10	X11	Y11	Z11	X12	Y12	Z12	X13	Y13	Z13	X14	Y14	Z14	X15	Y15	Z15	X16	Y16	Z16	X17	Y17	Z17	X18	Y18	Z18	X19	Y19	Z19	X20	Y20	Z20	X21	Y21	Z21	X22	Y22	Z22
1636	58.45536123665422	573.2823810224332	1040.0278627751927	0.0	510.4660161059191	1040.8472672335988	0.0	522.7825213341397	1278.3552113976136	0.0	545.5882425792169	1485.6093686689562	0.0	521.9496575407065	1595.6352150985347	0.0	490.7745607428456	1575.1192406357015	0.0	564.1107367790042	1506.0149963194438	0.0	631.3562997917484	1049.9774060206003	0.0	613.1478963310685	1307.8599813510757	0.0	633.511376307094	1398.1841671370405	0.0	621.1001130895896	1513.4378446677485	0.0	654.887727890373	1489.238373563683	0.0	641.8736990713129	1391.11246394583	0.0	594.8659808987329	698.7826567548734	0.0	575.4424619153612	530.1175692137522	0.0	552.5749730742347	651.0761239136791	0.0	486.47204667173014	727.5071481983995	0.0	452.53136382811465	902.7679689405549	0.0	430.37646350285456	1062.0804515428492	0.0	709.7713680554828	740.7307094515928	0.0	722.0607678953933	942.3058494140523	0.0	718.896103925639	1113.1836795720017	0.0
1637	58.49109189755682	569.8399003688894	1046.2796596851006	0.0	507.92381226094255	1048.2089185918505	0.0	522.1468731021104	1294.7715466349946	0.0	545.1330982614601	1489.353053723301	0.0	517.4966308001677	1597.1361688263544	0.0	490.4689735650148	1576.018015129636	0.0	562.5173926363594	1507.5283278305144	0.0	629.4891541118429	1058.7129873108736	0.0	599.7274152092191	1327.0900990346256	0.0	638.6225697735407	1455.1071722499316	0.0	616.2928912854	1571.6018678349228	0.0	652.7609660161336	1555.3431793928596	0.0	652.6483405823923	1457.19422211953	0.0	594.566016047402	697.3947871729584	0.0	569.4112910430376	528.7890783271472	0.0	544.5103982226904	649.0856267950855	0.0	486.84878241383416	727.0852060712534	0.0	451.47184764934525	906.2212992049242	0.0	427.5288134973379	1064.6512304687135	0.0	708.9172610720386	743.2864129303404	0.0	721.9961660049736	946.8512005110622	0.0	718.956441420509	1118.9770143885303	0.0
1638	58.52682255845942	566.2618685656415	1052.4077111153852	0.0	506.0196789065281	1056.4851561088853	0.0	521.5021292097717	1308.0226872731628	0.0	544.8128183047297	1493.4784645713949	0.0	512.200652793045	1598.3896805737645	0.0	489.88882943327627	1576.8333106302125	0.0	563.3161195270129	1510.3576209654996	0.0	626.7300650302409	1067.6411246608673	0.0	587.2645410869028	1338.678070587915	0.0	641.4858463202797	1516.132027043068	0.0	599.7216664910678	1616.4952264463147	0.0	640.1079013277457	1609.4072523470586	0.0	660.420846107726	1527.7782122128954	0.0	594.0317119390104	698.0685170834986	0.0	561.6966378021716	531.1235378747808	0.0	538.3230195135155	649.803678022062	0.0	486.9774044025297	728.4987544602194	0.0	450.79431780368435	909.7724651137072	0.0	424.536316067136	1067.5585327884119	0.0	707.7771761085093	746.910273056586	0.0	721.045072652084	953.527755010991	0.0	717.9967008882735	1126.6601996635359	0.0
1639	58.56255321936202	563.3256132231155	1060.388769359957	0.0	503.8373474818013	1064.62725083541	0.0	519.7881009872244	1313.114192013944	0.0	544.7665022978373	1494.8966610962352	0.0	510.30593195785787	1599.6326477921625	0.0	489.8150047006654	1577.2846666081782	0.0	565.0698423486415	1512.1800602905826	0.0	622.6242216659396	1077.0699979906894	0.0	578.0883424201376	1343.27725346652	0.0	640.4698573504941	1570.109007500366	0.0	573.1395388725106	1653.3302064742686	0.0	615.0615103269048	1651.4870668937106	0.0	664.7462543755737	1589.3812633319742	0.0	593.8119702999326	702.288630008337	0.0	554.9514357815113	536.7708869306732	0.0	530.7420662159091	655.0126316864121	0.0	488.2110298974437	730.7322003338293	0.0	451.53450776493287	912.1867158879294	0.0	422.47709732127413	1070.0757449933242	0.0	706.0513692464735	752.577940783872	0.0	720.1542879890411	963.7189890594308	0.0	716.0867526984854	1138.232783252043	0.0
1640	58.598283880264624	560.4322467995569	1069.9465892311282	0.0	501.03469318940125	1069.4038708535386	0.0	517.0982284138174	1315.3540655870295	0.0	544.8696985692341	1494.4401130405392	0.0	509.260265498584	1599.975560000025	0.0	489.79502311906975	1574.9703130902717	0.0	566.4228061350157	1511.7917001212102	0.0	617.9730095027973	1085.289941747371	0.0	571.834547407116	1350.0478201799758	0.0	632.6037168387576	1612.5885359797514	0.0	541.7699381345627	1690.9289708549993	0.0	580.4931908414588	1690.753771945182	0.0	662.7451277223396	1637.1165977497838	0.0	594.5623516589034	709.8625049121428	0.0	549.0117192379621	541.7559043663446	0.0	523.403920266318	663.5832559928242	0.0	491.72377987466416	731.8213249114069	0.0	454.7268218335865	912.5687172496814	0.0	422.26526238205565	1070.0196480793038	0.0	703.8404232966008	759.8182287872863	0.0	719.6641062628643	975.3152804131212	0.0	712.943405496953	1151.6018720734085	0.0
1641	58.634014541167225	557.1553028747294	1078.8662231546853	0.0	498.73211783107956	1069.7657429680808	0.0	513.7597116854013	1318.9702957766356	0.0	545.8229571059632	1493.811821778291	0.0	503.4967354949001	1598.0873786845018	0.0	487.7038564530271	1569.3956800894844	0.0	568.8968592595386	1511.372793331866	0.0	614.1878932419137	1090.6168512997747	0.0	567.7741872081889	1362.4095452589281	0.0	617.1689835918223	1644.651638588142	0.0	511.7100344075217	1722.2442485123497	0.0	545.3683087410252	1724.9707971424318	0.0	651.4949851182173	1673.3506798518758	0.0	596.0737307672234	718.4116660148949	0.0	542.4723263087311	545.0221174175775	0.0	519.8502272524788	672.9014237075708	0.0	497.2256842847601	732.4880690586688	0.0	460.8504117376254	913.0606771799586	0.0	423.16595243658696	1069.6869059250464	0.0	701.2867395672762	767.1165796158739	0.0	718.739036818859	985.371694051106	0.0	708.5359547295886	1163.813683628669	0.0
